<mxfile host="app.diagrams.net" modified="2022-01-11T02:11:52.698Z" agent="5.0 (Macintosh; Intel Mac OS X 10_15_7) AppleWebKit/537.36 (KHTML, like Gecko) Chrome/96.0.4664.110 Safari/537.36" etag="7TdUiYbtYvAE57bGqnEh" version="16.1.0" type="github">
  <diagram id="SCuag0Vi30MNrGqopLUd" name="第 1 页">
    <mxGraphModel dx="1042" dy="552" grid="1" gridSize="10" guides="1" tooltips="1" connect="1" arrows="1" fold="1" page="1" pageScale="1" pageWidth="827" pageHeight="1169" background="#ffffff" math="0" shadow="0">
      <root>
        <mxCell id="0" />
        <mxCell id="1" parent="0" />
        <mxCell id="J7cg4IHQDUbsg99H-2Za-1" value="&lt;font style=&quot;font-size: 14px&quot; face=&quot;Comic Sans MS&quot;&gt;1&lt;/font&gt;" style="rounded=0;whiteSpace=wrap;html=1;shadow=1;sketch=0;fillColor=#dae8fc;strokeColor=#6c8ebf;" vertex="1" parent="1">
          <mxGeometry x="280" y="200" width="40" height="40" as="geometry" />
        </mxCell>
        <mxCell id="J7cg4IHQDUbsg99H-2Za-5" value="&lt;font style=&quot;font-size: 14px&quot; face=&quot;Comic Sans MS&quot;&gt;1&lt;/font&gt;" style="rounded=0;whiteSpace=wrap;html=1;shadow=1;sketch=0;fillColor=#dae8fc;strokeColor=#6c8ebf;" vertex="1" parent="1">
          <mxGeometry x="320" y="200" width="40" height="40" as="geometry" />
        </mxCell>
        <mxCell id="J7cg4IHQDUbsg99H-2Za-6" value="&lt;font style=&quot;font-size: 14px&quot; face=&quot;Comic Sans MS&quot;&gt;1&lt;/font&gt;" style="rounded=0;whiteSpace=wrap;html=1;shadow=1;sketch=0;fillColor=#dae8fc;strokeColor=#6c8ebf;" vertex="1" parent="1">
          <mxGeometry x="360" y="200" width="40" height="40" as="geometry" />
        </mxCell>
        <mxCell id="J7cg4IHQDUbsg99H-2Za-21" style="edgeStyle=orthogonalEdgeStyle;rounded=0;orthogonalLoop=1;jettySize=auto;html=1;exitX=0.5;exitY=1;exitDx=0;exitDy=0;fontFamily=Comic Sans MS;fontSize=14;" edge="1" parent="1" source="J7cg4IHQDUbsg99H-2Za-7" target="J7cg4IHQDUbsg99H-2Za-20">
          <mxGeometry relative="1" as="geometry" />
        </mxCell>
        <mxCell id="J7cg4IHQDUbsg99H-2Za-7" value="&lt;font style=&quot;font-size: 14px&quot; face=&quot;Comic Sans MS&quot;&gt;2&lt;/font&gt;" style="rounded=0;whiteSpace=wrap;html=1;shadow=1;sketch=0;fillColor=#f8cecc;strokeColor=#b85450;" vertex="1" parent="1">
          <mxGeometry x="400" y="200" width="40" height="40" as="geometry" />
        </mxCell>
        <mxCell id="J7cg4IHQDUbsg99H-2Za-8" value="&lt;font style=&quot;font-size: 14px&quot; face=&quot;Comic Sans MS&quot;&gt;2&lt;/font&gt;" style="rounded=0;whiteSpace=wrap;html=1;shadow=1;sketch=0;fillColor=#dae8fc;strokeColor=#6c8ebf;" vertex="1" parent="1">
          <mxGeometry x="440" y="200" width="40" height="40" as="geometry" />
        </mxCell>
        <mxCell id="J7cg4IHQDUbsg99H-2Za-9" value="&lt;font style=&quot;font-size: 14px&quot; face=&quot;Comic Sans MS&quot;&gt;2&lt;/font&gt;" style="rounded=0;whiteSpace=wrap;html=1;shadow=1;sketch=0;fillColor=#dae8fc;strokeColor=#6c8ebf;" vertex="1" parent="1">
          <mxGeometry x="480" y="200" width="40" height="40" as="geometry" />
        </mxCell>
        <mxCell id="J7cg4IHQDUbsg99H-2Za-10" value="&lt;font style=&quot;font-size: 14px&quot; face=&quot;Comic Sans MS&quot;&gt;2&lt;/font&gt;" style="rounded=0;whiteSpace=wrap;html=1;shadow=1;sketch=0;fillColor=#dae8fc;strokeColor=#6c8ebf;" vertex="1" parent="1">
          <mxGeometry x="520" y="200" width="40" height="40" as="geometry" />
        </mxCell>
        <mxCell id="J7cg4IHQDUbsg99H-2Za-11" value="&lt;font style=&quot;font-size: 14px&quot; face=&quot;Comic Sans MS&quot;&gt;1&lt;/font&gt;" style="rounded=0;whiteSpace=wrap;html=1;shadow=1;sketch=0;fillColor=#dae8fc;strokeColor=#6c8ebf;" vertex="1" parent="1">
          <mxGeometry x="280" y="360" width="40" height="40" as="geometry" />
        </mxCell>
        <mxCell id="J7cg4IHQDUbsg99H-2Za-12" value="&lt;font style=&quot;font-size: 14px&quot; face=&quot;Comic Sans MS&quot;&gt;1&lt;/font&gt;" style="rounded=0;whiteSpace=wrap;html=1;shadow=1;sketch=0;fillColor=#dae8fc;strokeColor=#6c8ebf;" vertex="1" parent="1">
          <mxGeometry x="320" y="360" width="40" height="40" as="geometry" />
        </mxCell>
        <mxCell id="J7cg4IHQDUbsg99H-2Za-13" value="&lt;font style=&quot;font-size: 14px&quot; face=&quot;Comic Sans MS&quot;&gt;1&lt;/font&gt;" style="rounded=0;whiteSpace=wrap;html=1;shadow=1;sketch=0;fillColor=#dae8fc;strokeColor=#6c8ebf;" vertex="1" parent="1">
          <mxGeometry x="360" y="360" width="40" height="40" as="geometry" />
        </mxCell>
        <mxCell id="J7cg4IHQDUbsg99H-2Za-23" style="edgeStyle=orthogonalEdgeStyle;rounded=0;orthogonalLoop=1;jettySize=auto;html=1;exitX=0.5;exitY=1;exitDx=0;exitDy=0;entryX=0.5;entryY=0;entryDx=0;entryDy=0;fontFamily=Comic Sans MS;fontSize=14;" edge="1" parent="1" source="J7cg4IHQDUbsg99H-2Za-14" target="J7cg4IHQDUbsg99H-2Za-22">
          <mxGeometry relative="1" as="geometry" />
        </mxCell>
        <mxCell id="J7cg4IHQDUbsg99H-2Za-14" value="&lt;font style=&quot;font-size: 14px&quot; face=&quot;Comic Sans MS&quot;&gt;1&lt;/font&gt;" style="rounded=0;whiteSpace=wrap;html=1;shadow=1;sketch=0;fillColor=#f8cecc;strokeColor=#b85450;" vertex="1" parent="1">
          <mxGeometry x="400" y="360" width="40" height="40" as="geometry" />
        </mxCell>
        <mxCell id="J7cg4IHQDUbsg99H-2Za-15" value="&lt;font style=&quot;font-size: 14px&quot; face=&quot;Comic Sans MS&quot;&gt;2&lt;/font&gt;" style="rounded=0;whiteSpace=wrap;html=1;shadow=1;sketch=0;fillColor=#dae8fc;strokeColor=#6c8ebf;" vertex="1" parent="1">
          <mxGeometry x="440" y="360" width="40" height="40" as="geometry" />
        </mxCell>
        <mxCell id="J7cg4IHQDUbsg99H-2Za-16" value="&lt;font style=&quot;font-size: 14px&quot; face=&quot;Comic Sans MS&quot;&gt;2&lt;/font&gt;" style="rounded=0;whiteSpace=wrap;html=1;shadow=1;sketch=0;fillColor=#dae8fc;strokeColor=#6c8ebf;" vertex="1" parent="1">
          <mxGeometry x="480" y="360" width="40" height="40" as="geometry" />
        </mxCell>
        <mxCell id="J7cg4IHQDUbsg99H-2Za-17" value="&lt;font style=&quot;font-size: 14px&quot; face=&quot;Comic Sans MS&quot;&gt;2&lt;/font&gt;" style="rounded=0;whiteSpace=wrap;html=1;shadow=1;sketch=0;fillColor=#dae8fc;strokeColor=#6c8ebf;" vertex="1" parent="1">
          <mxGeometry x="520" y="360" width="40" height="40" as="geometry" />
        </mxCell>
        <mxCell id="J7cg4IHQDUbsg99H-2Za-18" value="&lt;div class=&quot;okr-block-clipboard&quot;&gt;&lt;/div&gt;&lt;div&gt;&lt;blockquote&gt;&lt;b&gt;输入：&lt;/b&gt;[2,2,1,1,1,2,2] n = 7&lt;/blockquote&gt;&lt;/div&gt;" style="text;html=1;strokeColor=none;fillColor=none;align=center;verticalAlign=middle;whiteSpace=wrap;rounded=0;shadow=1;sketch=0;fontFamily=Comic Sans MS;fontSize=14;" vertex="1" parent="1">
          <mxGeometry x="280" y="160" width="280" height="40" as="geometry" />
        </mxCell>
        <mxCell id="J7cg4IHQDUbsg99H-2Za-19" value="&lt;div class=&quot;okr-block-clipboard&quot;&gt;&lt;/div&gt;&lt;div&gt;&lt;blockquote&gt;&lt;b&gt;输入：&lt;/b&gt;[2,2,1,1,1,2,1] n = 7&lt;/blockquote&gt;&lt;/div&gt;" style="text;html=1;strokeColor=none;fillColor=none;align=center;verticalAlign=middle;whiteSpace=wrap;rounded=0;shadow=1;sketch=0;fontFamily=Comic Sans MS;fontSize=14;" vertex="1" parent="1">
          <mxGeometry x="280" y="320" width="280" height="40" as="geometry" />
        </mxCell>
        <mxCell id="J7cg4IHQDUbsg99H-2Za-20" value="majority" style="text;html=1;strokeColor=none;fillColor=none;align=center;verticalAlign=middle;whiteSpace=wrap;rounded=0;shadow=1;sketch=0;fontFamily=Comic Sans MS;fontSize=14;" vertex="1" parent="1">
          <mxGeometry x="360" y="260" width="120" height="40" as="geometry" />
        </mxCell>
        <mxCell id="J7cg4IHQDUbsg99H-2Za-22" value="majority" style="text;html=1;strokeColor=none;fillColor=none;align=center;verticalAlign=middle;whiteSpace=wrap;rounded=0;shadow=1;sketch=0;fontFamily=Comic Sans MS;fontSize=14;" vertex="1" parent="1">
          <mxGeometry x="360" y="420" width="120" height="40" as="geometry" />
        </mxCell>
        <mxCell id="J7cg4IHQDUbsg99H-2Za-24" value="&lt;font style=&quot;font-size: 14px&quot; face=&quot;Comic Sans MS&quot;&gt;1&lt;/font&gt;" style="rounded=0;whiteSpace=wrap;html=1;shadow=1;sketch=0;fillColor=#dae8fc;strokeColor=#6c8ebf;" vertex="1" parent="1">
          <mxGeometry x="600" y="200" width="40" height="40" as="geometry" />
        </mxCell>
        <mxCell id="J7cg4IHQDUbsg99H-2Za-25" value="&lt;font style=&quot;font-size: 14px&quot; face=&quot;Comic Sans MS&quot;&gt;1&lt;/font&gt;" style="rounded=0;whiteSpace=wrap;html=1;shadow=1;sketch=0;fillColor=#dae8fc;strokeColor=#6c8ebf;" vertex="1" parent="1">
          <mxGeometry x="640" y="200" width="40" height="40" as="geometry" />
        </mxCell>
        <mxCell id="J7cg4IHQDUbsg99H-2Za-26" value="&lt;font style=&quot;font-size: 14px&quot; face=&quot;Comic Sans MS&quot;&gt;2&lt;/font&gt;" style="rounded=0;whiteSpace=wrap;html=1;shadow=1;sketch=0;fillColor=#dae8fc;strokeColor=#6c8ebf;" vertex="1" parent="1">
          <mxGeometry x="680" y="200" width="40" height="40" as="geometry" />
        </mxCell>
        <mxCell id="J7cg4IHQDUbsg99H-2Za-27" style="edgeStyle=orthogonalEdgeStyle;rounded=0;orthogonalLoop=1;jettySize=auto;html=1;exitX=0.5;exitY=1;exitDx=0;exitDy=0;fontFamily=Comic Sans MS;fontSize=14;" edge="1" parent="1" source="J7cg4IHQDUbsg99H-2Za-28" target="J7cg4IHQDUbsg99H-2Za-33">
          <mxGeometry relative="1" as="geometry" />
        </mxCell>
        <mxCell id="J7cg4IHQDUbsg99H-2Za-28" value="&lt;font style=&quot;font-size: 14px&quot; face=&quot;Comic Sans MS&quot;&gt;2&lt;/font&gt;" style="rounded=0;whiteSpace=wrap;html=1;shadow=1;sketch=0;fillColor=#f8cecc;strokeColor=#b85450;" vertex="1" parent="1">
          <mxGeometry x="720" y="200" width="40" height="40" as="geometry" />
        </mxCell>
        <mxCell id="J7cg4IHQDUbsg99H-2Za-29" value="&lt;font style=&quot;font-size: 14px&quot; face=&quot;Comic Sans MS&quot;&gt;2&lt;/font&gt;" style="rounded=0;whiteSpace=wrap;html=1;shadow=1;sketch=0;fillColor=#dae8fc;strokeColor=#6c8ebf;" vertex="1" parent="1">
          <mxGeometry x="760" y="200" width="40" height="40" as="geometry" />
        </mxCell>
        <mxCell id="J7cg4IHQDUbsg99H-2Za-30" value="&lt;font style=&quot;font-size: 14px&quot; face=&quot;Comic Sans MS&quot;&gt;2&lt;/font&gt;" style="rounded=0;whiteSpace=wrap;html=1;shadow=1;sketch=0;fillColor=#dae8fc;strokeColor=#6c8ebf;" vertex="1" parent="1">
          <mxGeometry x="800" y="200" width="40" height="40" as="geometry" />
        </mxCell>
        <mxCell id="J7cg4IHQDUbsg99H-2Za-32" value="&lt;div class=&quot;okr-block-clipboard&quot;&gt;&lt;/div&gt;&lt;div&gt;&lt;blockquote&gt;&lt;b&gt;输入：&lt;/b&gt;[2,2,1,1,2,2] n = 6&lt;/blockquote&gt;&lt;/div&gt;" style="text;html=1;strokeColor=none;fillColor=none;align=center;verticalAlign=middle;whiteSpace=wrap;rounded=0;shadow=1;sketch=0;fontFamily=Comic Sans MS;fontSize=14;" vertex="1" parent="1">
          <mxGeometry x="590" y="160" width="280" height="40" as="geometry" />
        </mxCell>
        <mxCell id="J7cg4IHQDUbsg99H-2Za-33" value="majority" style="text;html=1;strokeColor=none;fillColor=none;align=center;verticalAlign=middle;whiteSpace=wrap;rounded=0;shadow=1;sketch=0;fontFamily=Comic Sans MS;fontSize=14;" vertex="1" parent="1">
          <mxGeometry x="680" y="260" width="120" height="40" as="geometry" />
        </mxCell>
        <mxCell id="J7cg4IHQDUbsg99H-2Za-34" value="偶数数组" style="text;html=1;strokeColor=none;fillColor=none;align=center;verticalAlign=middle;whiteSpace=wrap;rounded=0;shadow=1;sketch=0;fontFamily=Comic Sans MS;fontSize=14;fontColor=#000000;" vertex="1" parent="1">
          <mxGeometry x="360" y="120" width="120" height="40" as="geometry" />
        </mxCell>
        <mxCell id="J7cg4IHQDUbsg99H-2Za-35" value="奇数数组" style="text;html=1;strokeColor=none;fillColor=none;align=center;verticalAlign=middle;whiteSpace=wrap;rounded=0;shadow=1;sketch=0;fontFamily=Comic Sans MS;fontSize=14;fontColor=#000000;" vertex="1" parent="1">
          <mxGeometry x="660" y="120" width="120" height="40" as="geometry" />
        </mxCell>
        <mxCell id="J7cg4IHQDUbsg99H-2Za-37" value="&lt;font style=&quot;font-size: 14px&quot; face=&quot;Comic Sans MS&quot;&gt;1&lt;/font&gt;" style="rounded=0;whiteSpace=wrap;html=1;shadow=1;sketch=0;fillColor=#dae8fc;strokeColor=#6c8ebf;" vertex="1" parent="1">
          <mxGeometry x="600" y="360" width="40" height="40" as="geometry" />
        </mxCell>
        <mxCell id="J7cg4IHQDUbsg99H-2Za-38" value="&lt;font style=&quot;font-size: 14px&quot; face=&quot;Comic Sans MS&quot;&gt;1&lt;/font&gt;" style="rounded=0;whiteSpace=wrap;html=1;shadow=1;sketch=0;fillColor=#dae8fc;strokeColor=#6c8ebf;" vertex="1" parent="1">
          <mxGeometry x="640" y="360" width="40" height="40" as="geometry" />
        </mxCell>
        <mxCell id="J7cg4IHQDUbsg99H-2Za-39" value="&lt;font style=&quot;font-size: 14px&quot; face=&quot;Comic Sans MS&quot;&gt;1&lt;/font&gt;" style="rounded=0;whiteSpace=wrap;html=1;shadow=1;sketch=0;fillColor=#dae8fc;strokeColor=#6c8ebf;" vertex="1" parent="1">
          <mxGeometry x="680" y="360" width="40" height="40" as="geometry" />
        </mxCell>
        <mxCell id="J7cg4IHQDUbsg99H-2Za-40" style="edgeStyle=orthogonalEdgeStyle;rounded=0;orthogonalLoop=1;jettySize=auto;html=1;exitX=0.5;exitY=1;exitDx=0;exitDy=0;fontFamily=Comic Sans MS;fontSize=14;" edge="1" parent="1" source="J7cg4IHQDUbsg99H-2Za-41" target="J7cg4IHQDUbsg99H-2Za-45">
          <mxGeometry relative="1" as="geometry" />
        </mxCell>
        <mxCell id="J7cg4IHQDUbsg99H-2Za-41" value="&lt;font style=&quot;font-size: 14px&quot; face=&quot;Comic Sans MS&quot;&gt;1&lt;/font&gt;" style="rounded=0;whiteSpace=wrap;html=1;shadow=1;sketch=0;fillColor=#f8cecc;strokeColor=#b85450;" vertex="1" parent="1">
          <mxGeometry x="720" y="360" width="40" height="40" as="geometry" />
        </mxCell>
        <mxCell id="J7cg4IHQDUbsg99H-2Za-42" value="&lt;font style=&quot;font-size: 14px&quot; face=&quot;Comic Sans MS&quot;&gt;2&lt;/font&gt;" style="rounded=0;whiteSpace=wrap;html=1;shadow=1;sketch=0;fillColor=#dae8fc;strokeColor=#6c8ebf;" vertex="1" parent="1">
          <mxGeometry x="760" y="360" width="40" height="40" as="geometry" />
        </mxCell>
        <mxCell id="J7cg4IHQDUbsg99H-2Za-43" value="&lt;font style=&quot;font-size: 14px&quot; face=&quot;Comic Sans MS&quot;&gt;2&lt;/font&gt;" style="rounded=0;whiteSpace=wrap;html=1;shadow=1;sketch=0;fillColor=#dae8fc;strokeColor=#6c8ebf;" vertex="1" parent="1">
          <mxGeometry x="800" y="360" width="40" height="40" as="geometry" />
        </mxCell>
        <mxCell id="J7cg4IHQDUbsg99H-2Za-44" value="&lt;div class=&quot;okr-block-clipboard&quot;&gt;&lt;/div&gt;&lt;div&gt;&lt;blockquote&gt;&lt;b&gt;输入：&lt;/b&gt;[1,2,1,1,1,2] n = 6&lt;/blockquote&gt;&lt;/div&gt;" style="text;html=1;strokeColor=none;fillColor=none;align=center;verticalAlign=middle;whiteSpace=wrap;rounded=0;shadow=1;sketch=0;fontFamily=Comic Sans MS;fontSize=14;" vertex="1" parent="1">
          <mxGeometry x="590" y="320" width="280" height="40" as="geometry" />
        </mxCell>
        <mxCell id="J7cg4IHQDUbsg99H-2Za-45" value="majority" style="text;html=1;strokeColor=none;fillColor=none;align=center;verticalAlign=middle;whiteSpace=wrap;rounded=0;shadow=1;sketch=0;fontFamily=Comic Sans MS;fontSize=14;" vertex="1" parent="1">
          <mxGeometry x="680" y="420" width="120" height="40" as="geometry" />
        </mxCell>
        <mxCell id="J7cg4IHQDUbsg99H-2Za-47" value="&lt;font style=&quot;font-size: 14px&quot; face=&quot;Comic Sans MS&quot;&gt;7&lt;/font&gt;" style="rounded=0;whiteSpace=wrap;html=1;shadow=1;sketch=0;fillColor=#f8cecc;strokeColor=#b85450;" vertex="1" parent="1">
          <mxGeometry x="280" y="560" width="40" height="40" as="geometry" />
        </mxCell>
        <mxCell id="J7cg4IHQDUbsg99H-2Za-48" value="&lt;font style=&quot;font-size: 14px&quot; face=&quot;Comic Sans MS&quot;&gt;7&lt;/font&gt;" style="rounded=0;whiteSpace=wrap;html=1;shadow=1;sketch=0;fillColor=#f8cecc;strokeColor=#b85450;" vertex="1" parent="1">
          <mxGeometry x="320" y="560" width="40" height="40" as="geometry" />
        </mxCell>
        <mxCell id="J7cg4IHQDUbsg99H-2Za-49" value="&lt;font style=&quot;font-size: 14px&quot; face=&quot;Comic Sans MS&quot;&gt;5&lt;/font&gt;" style="rounded=0;whiteSpace=wrap;html=1;shadow=1;sketch=0;fillColor=#dae8fc;strokeColor=#6c8ebf;" vertex="1" parent="1">
          <mxGeometry x="360" y="560" width="40" height="40" as="geometry" />
        </mxCell>
        <mxCell id="J7cg4IHQDUbsg99H-2Za-51" value="&lt;font style=&quot;font-size: 14px&quot; face=&quot;Comic Sans MS&quot;&gt;7&lt;/font&gt;" style="rounded=0;whiteSpace=wrap;html=1;shadow=1;sketch=0;fillColor=#f8cecc;strokeColor=#b85450;" vertex="1" parent="1">
          <mxGeometry x="400" y="560" width="40" height="40" as="geometry" />
        </mxCell>
        <mxCell id="J7cg4IHQDUbsg99H-2Za-52" value="&lt;font style=&quot;font-size: 14px&quot; face=&quot;Comic Sans MS&quot;&gt;5&lt;/font&gt;" style="rounded=0;whiteSpace=wrap;html=1;shadow=1;sketch=0;fillColor=#dae8fc;strokeColor=#6c8ebf;" vertex="1" parent="1">
          <mxGeometry x="440" y="560" width="40" height="40" as="geometry" />
        </mxCell>
        <mxCell id="J7cg4IHQDUbsg99H-2Za-53" value="&lt;font style=&quot;font-size: 14px&quot; face=&quot;Comic Sans MS&quot;&gt;7&lt;/font&gt;" style="rounded=0;whiteSpace=wrap;html=1;shadow=1;sketch=0;fillColor=#f8cecc;strokeColor=#b85450;" vertex="1" parent="1">
          <mxGeometry x="480" y="560" width="40" height="40" as="geometry" />
        </mxCell>
        <mxCell id="J7cg4IHQDUbsg99H-2Za-54" value="&lt;font style=&quot;font-size: 14px&quot; face=&quot;Comic Sans MS&quot;&gt;5&lt;/font&gt;" style="rounded=0;whiteSpace=wrap;html=1;shadow=1;sketch=0;fillColor=#dae8fc;strokeColor=#6c8ebf;" vertex="1" parent="1">
          <mxGeometry x="520" y="560" width="40" height="40" as="geometry" />
        </mxCell>
        <mxCell id="J7cg4IHQDUbsg99H-2Za-64" value="&lt;div class=&quot;okr-block-clipboard&quot;&gt;&lt;/div&gt;&lt;div&gt;&lt;blockquote&gt;&lt;b&gt;4个7，3个5&lt;/b&gt;&lt;/blockquote&gt;&lt;/div&gt;" style="text;html=1;strokeColor=none;fillColor=none;align=center;verticalAlign=middle;whiteSpace=wrap;rounded=0;shadow=1;sketch=0;fontFamily=Comic Sans MS;fontSize=14;" vertex="1" parent="1">
          <mxGeometry x="280" y="520" width="280" height="40" as="geometry" />
        </mxCell>
        <mxCell id="J7cg4IHQDUbsg99H-2Za-65" value="&lt;font style=&quot;font-size: 14px&quot; face=&quot;Comic Sans MS&quot;&gt;7&lt;/font&gt;" style="rounded=0;whiteSpace=wrap;html=1;shadow=1;sketch=0;fillColor=#f8cecc;strokeColor=#b85450;" vertex="1" parent="1">
          <mxGeometry x="400" y="680" width="40" height="40" as="geometry" />
        </mxCell>
        <mxCell id="J7cg4IHQDUbsg99H-2Za-72" value="抵消后只剩下一个7" style="text;html=1;strokeColor=none;fillColor=none;align=center;verticalAlign=middle;whiteSpace=wrap;rounded=0;shadow=1;sketch=0;fontFamily=Comic Sans MS;fontSize=14;fontColor=#000000;" vertex="1" parent="1">
          <mxGeometry x="350" y="640" width="140" height="40" as="geometry" />
        </mxCell>
      </root>
    </mxGraphModel>
  </diagram>
</mxfile>
